<?xml version="1.0" encoding="UTF-8"?><svg xmlns="http://www.w3.org/2000/svg" xmlns:xlink="http://www.w3.org/1999/xlink" fill-opacity="1" color-rendering="auto" color-interpolation="auto" text-rendering="auto" stroke="black" stroke-linecap="square" width="970" stroke-miterlimit="10" shape-rendering="auto" stroke-opacity="1" fill="black" stroke-dasharray="none" font-weight="normal" stroke-width="1" height="785" font-family="'Dialog'" font-style="normal" stroke-linejoin="miter" font-size="12px" stroke-dashoffset="0" image-rendering="auto">
  <!--Generated by ySVG 2.5-->
  <defs id="genericDefs"/>
  <g>
    <defs id="defs1">
      <clipPath clipPathUnits="userSpaceOnUse" id="clipPath1">
        <path d="M0 0 L970 0 L970 785 L0 785 L0 0 Z"/>
      </clipPath>
      <clipPath clipPathUnits="userSpaceOnUse" id="clipPath2">
        <path d="M-55 -90 L915 -90 L915 695 L-55 695 L-55 -90 Z"/>
      </clipPath>
      <clipPath clipPathUnits="userSpaceOnUse" id="clipPath3">
        <path d="M-60 -95 L910 -95 L910 690 L-60 690 L-60 -95 Z"/>
      </clipPath>
      <clipPath clipPathUnits="userSpaceOnUse" id="clipPath4">
        <path d="M0 0 L0 70 L154 70 L154 0 Z"/>
      </clipPath>
      <clipPath clipPathUnits="userSpaceOnUse" id="clipPath5">
        <path d="M0 0 L0 55 L98 55 L98 0 Z"/>
      </clipPath>
      <clipPath clipPathUnits="userSpaceOnUse" id="clipPath6">
        <path d="M0 0 L0 55 L105 55 L105 0 Z"/>
      </clipPath>
      <clipPath clipPathUnits="userSpaceOnUse" id="clipPath7">
        <path d="M0 0 L0 70 L266 70 L266 0 Z"/>
      </clipPath>
      <clipPath clipPathUnits="userSpaceOnUse" id="clipPath8">
        <path d="M0 0 L0 55 L128 55 L128 0 Z"/>
      </clipPath>
    </defs>
    <g fill="white" text-rendering="geometricPrecision" shape-rendering="geometricPrecision" transform="translate(55,90)" stroke="white">
      <rect x="-55" width="970" height="785" y="-90" clip-path="url(#clipPath2)" stroke="none"/>
    </g>
    <g fill="rgb(179,166,145)" text-rendering="geometricPrecision" shape-rendering="geometricPrecision" transform="matrix(1,0,0,1,55,90) translate(5,5)" stroke="rgb(179,166,145)">
      <rect x="460" width="280" height="150" y="525" clip-path="url(#clipPath3)" stroke="none"/>
    </g>
    <g fill="rgb(243,242,192)" text-rendering="geometricPrecision" shape-rendering="geometricPrecision" transform="matrix(1,0,0,1,55,90)" stroke="rgb(243,242,192)">
      <rect x="460" width="280" height="150" y="525" clip-path="url(#clipPath2)" stroke="none"/>
    </g>
    <g stroke-linecap="butt" transform="matrix(1,0,0,1,55,90) translate(466,531)" text-rendering="geometricPrecision" font-family="sans-serif" shape-rendering="geometricPrecision" font-weight="bold" stroke-miterlimit="1.45">
      <text x="0" xml:space="preserve" y="12" clip-path="url(#clipPath4)" stroke="none">Cooking Interrupted</text>
      <text x="0" y="32" clip-path="url(#clipPath4)" font-family="monospace" stroke="none" font-weight="normal" xml:space="preserve">/entry</text>
      <text x="0" y="47" clip-path="url(#clipPath4)" font-family="monospace" stroke="none" font-weight="normal" xml:space="preserve">turn light on;</text>
      <text x="0" y="62" clip-path="url(#clipPath4)" font-family="monospace" stroke="none" font-weight="normal" xml:space="preserve">cancel signal to self;</text>
    </g>
    <g text-rendering="geometricPrecision" stroke-miterlimit="1.45" shape-rendering="geometricPrecision" transform="matrix(1,0,0,1,55,90)" stroke-linecap="butt">
      <rect fill="none" x="460" width="280" height="150" y="525" clip-path="url(#clipPath2)"/>
    </g>
    <g fill="rgb(179,166,145)" text-rendering="geometricPrecision" shape-rendering="geometricPrecision" transform="matrix(1,0,0,1,55,90) translate(5,5)" stroke="rgb(179,166,145)">
      <rect x="460" width="280" height="150" y="-75" clip-path="url(#clipPath3)" stroke="none"/>
    </g>
    <g fill="rgb(243,242,192)" text-rendering="geometricPrecision" shape-rendering="geometricPrecision" transform="matrix(1,0,0,1,55,90)" stroke="rgb(243,242,192)">
      <rect x="460" width="280" height="150" y="-75" clip-path="url(#clipPath2)" stroke="none"/>
    </g>
    <g stroke-linecap="butt" transform="matrix(1,0,0,1,55,90) translate(466,-69)" text-rendering="geometricPrecision" font-family="sans-serif" shape-rendering="geometricPrecision" font-weight="bold" stroke-miterlimit="1.45">
      <text x="0" xml:space="preserve" y="12" clip-path="url(#clipPath5)" stroke="none">Door Open</text>
      <text x="0" y="32" clip-path="url(#clipPath5)" font-family="monospace" stroke="none" font-weight="normal" xml:space="preserve">/entry</text>
      <text x="0" y="47" clip-path="url(#clipPath5)" font-family="monospace" stroke="none" font-weight="normal" xml:space="preserve">turn light on;</text>
    </g>
    <g text-rendering="geometricPrecision" stroke-miterlimit="1.45" shape-rendering="geometricPrecision" transform="matrix(1,0,0,1,55,90)" stroke-linecap="butt">
      <rect fill="none" x="460" width="280" height="150" y="-75" clip-path="url(#clipPath2)"/>
    </g>
    <g fill="rgb(179,166,145)" text-rendering="geometricPrecision" shape-rendering="geometricPrecision" transform="matrix(1,0,0,1,55,90) translate(5,5)" stroke="rgb(179,166,145)">
      <rect x="460" width="280" height="150" y="225" clip-path="url(#clipPath3)" stroke="none"/>
    </g>
    <g fill="rgb(243,242,192)" text-rendering="geometricPrecision" shape-rendering="geometricPrecision" transform="matrix(1,0,0,1,55,90)" stroke="rgb(243,242,192)">
      <rect x="460" width="280" height="150" y="225" clip-path="url(#clipPath2)" stroke="none"/>
    </g>
    <g stroke-linecap="butt" transform="matrix(1,0,0,1,55,90) translate(466,231)" text-rendering="geometricPrecision" font-family="sans-serif" shape-rendering="geometricPrecision" font-weight="bold" stroke-miterlimit="1.45">
      <text x="0" xml:space="preserve" y="12" clip-path="url(#clipPath6)" stroke="none">Ready to Cook</text>
      <text x="0" y="32" clip-path="url(#clipPath6)" font-family="monospace" stroke="none" font-weight="normal" xml:space="preserve">/entry</text>
      <text x="0" y="47" clip-path="url(#clipPath6)" font-family="monospace" stroke="none" font-weight="normal" xml:space="preserve">turn light off;</text>
    </g>
    <g text-rendering="geometricPrecision" stroke-miterlimit="1.45" shape-rendering="geometricPrecision" transform="matrix(1,0,0,1,55,90)" stroke-linecap="butt">
      <rect fill="none" x="460" width="280" height="150" y="225" clip-path="url(#clipPath2)"/>
    </g>
    <g fill="rgb(179,166,145)" text-rendering="geometricPrecision" shape-rendering="geometricPrecision" transform="matrix(1,0,0,1,55,90) translate(5,5)" stroke="rgb(179,166,145)">
      <rect x="-40" width="280" height="150" y="225" clip-path="url(#clipPath3)" stroke="none"/>
    </g>
    <g fill="rgb(243,242,192)" text-rendering="geometricPrecision" shape-rendering="geometricPrecision" transform="matrix(1,0,0,1,55,90)" stroke="rgb(243,242,192)">
      <rect x="-40" width="280" height="150" y="225" clip-path="url(#clipPath2)" stroke="none"/>
    </g>
    <g stroke-linecap="butt" transform="matrix(1,0,0,1,55,90) translate(-34,231)" text-rendering="geometricPrecision" font-family="sans-serif" shape-rendering="geometricPrecision" font-weight="bold" stroke-miterlimit="1.45">
      <text x="0" xml:space="preserve" y="12" clip-path="url(#clipPath7)" stroke="none">Cooking</text>
      <text x="0" y="32" clip-path="url(#clipPath7)" font-family="monospace" stroke="none" font-weight="normal" xml:space="preserve">/entry</text>
      <text x="0" y="47" clip-path="url(#clipPath7)" font-family="monospace" stroke="none" font-weight="normal" xml:space="preserve">turn light on;</text>
      <text x="0" y="62" clip-path="url(#clipPath7)" font-family="monospace" stroke="none" font-weight="normal" xml:space="preserve">signal TimerTimesOut to self in 1 min;</text>
    </g>
    <g text-rendering="geometricPrecision" stroke-miterlimit="1.45" shape-rendering="geometricPrecision" transform="matrix(1,0,0,1,55,90)" stroke-linecap="butt">
      <rect fill="none" x="-40" width="280" height="150" y="225" clip-path="url(#clipPath2)"/>
    </g>
    <g fill="rgb(179,166,145)" text-rendering="geometricPrecision" shape-rendering="geometricPrecision" transform="matrix(1,0,0,1,55,90) translate(5,5)" stroke="rgb(179,166,145)">
      <rect x="-40" width="280" height="150" y="-75" clip-path="url(#clipPath3)" stroke="none"/>
    </g>
    <g fill="rgb(243,242,192)" text-rendering="geometricPrecision" shape-rendering="geometricPrecision" transform="matrix(1,0,0,1,55,90)" stroke="rgb(243,242,192)">
      <rect x="-40" width="280" height="150" y="-75" clip-path="url(#clipPath2)" stroke="none"/>
    </g>
    <g stroke-linecap="butt" transform="matrix(1,0,0,1,55,90) translate(-34,-69)" text-rendering="geometricPrecision" font-family="sans-serif" shape-rendering="geometricPrecision" font-weight="bold" stroke-miterlimit="1.45">
      <text x="0" xml:space="preserve" y="12" clip-path="url(#clipPath8)" stroke="none">Cooking Complete</text>
      <text x="0" y="32" clip-path="url(#clipPath8)" font-family="monospace" stroke="none" font-weight="normal" xml:space="preserve">/entry</text>
      <text x="0" y="47" clip-path="url(#clipPath8)" font-family="monospace" stroke="none" font-weight="normal" xml:space="preserve">turn light off;</text>
    </g>
    <g text-rendering="geometricPrecision" stroke-miterlimit="1.45" shape-rendering="geometricPrecision" transform="matrix(1,0,0,1,55,90)" stroke-linecap="butt">
      <rect fill="none" x="-40" width="280" height="150" y="-75" clip-path="url(#clipPath2)"/>
      <path fill="none" d="M600 75 L600 216.9634" clip-path="url(#clipPath2)"/>
      <path d="M600 224.9634 L605 212.9634 L600 215.9634 L595 212.9634 Z" clip-path="url(#clipPath2)" stroke="none"/>
      <text x="535.418" xml:space="preserve" y="154.1543" clip-path="url(#clipPath2)" font-family="sans-serif" stroke="none">DoorClosed</text>
      <path fill="none" d="M600 524.9634 L600 383" clip-path="url(#clipPath2)"/>
      <path d="M600 375 L595 387 L600 384 L605 387 Z" clip-path="url(#clipPath2)" stroke="none"/>
      <text x="595.418" xml:space="preserve" y="454.1543" clip-path="url(#clipPath2)" font-family="sans-serif" stroke="none">DoorClosed</text>
      <path fill="none" d="M740 300 L900 300 L900 0 L748 0" clip-path="url(#clipPath2)"/>
      <path d="M740 0 L752 5 L749 0 L752 -5 Z" clip-path="url(#clipPath2)" stroke="none"/>
      <text x="804.5229" xml:space="preserve" y="334.1543" clip-path="url(#clipPath2)" font-family="sans-serif" stroke="none">DoorOpened</text>
      <path fill="none" d="M459.9731 300 L248 300" clip-path="url(#clipPath2)"/>
      <path d="M240 300 L252 305 L249 300 L252 295 Z" clip-path="url(#clipPath2)" stroke="none"/>
      <text x="306.374" xml:space="preserve" y="274.1543" clip-path="url(#clipPath2)" font-family="sans-serif" stroke="none">ButtonPressed</text>
      <path fill="none" d="M100 375 L100 600 L451.9561 600" clip-path="url(#clipPath2)"/>
      <path d="M459.9561 600 L447.9561 595 L450.9561 600 L447.9561 605 Z" clip-path="url(#clipPath2)" stroke="none"/>
      <text x="32.0459" xml:space="preserve" y="498.6465" clip-path="url(#clipPath2)" font-family="sans-serif" stroke="none">DoorOpened</text>
      <path fill="none" d="M100 224.9634 L100 83" clip-path="url(#clipPath2)"/>
      <path d="M100 75 L95 87 L100 84 L105 87 Z" clip-path="url(#clipPath2)" stroke="none"/>
      <text x="83.793" xml:space="preserve" y="154.1543" clip-path="url(#clipPath2)" font-family="sans-serif" stroke="none">TimerTimesOut</text>
      <path fill="none" d="M240 0 L451.9731 0" clip-path="url(#clipPath2)"/>
      <path d="M459.9731 0 L447.9731 -5 L450.9731 0 L447.9731 5 Z" clip-path="url(#clipPath2)" stroke="none"/>
      <text x="312.0459" xml:space="preserve" y="34.1543" clip-path="url(#clipPath2)" font-family="sans-serif" stroke="none">DoorOpened</text>
    </g>
  </g>
</svg>
